<svg id="Layer_1" data-name="Layer 1" xmlns="http://www.w3.org/2000/svg" viewBox="0 0 566.57 91.92"><defs><style>.cls-1{fill:#fff;}.cls-2{fill:#007ac2;}.cls-3{fill:#e4002b;}.cls-4{fill:#ffd659;}</style></defs><title>NASCAR_FullColor_onBlack_RGB</title><path class="cls-1" d="M558.18,9V4.24h-1.78V3.6h4.3V4.24H558.9V9h-0.72Z" transform="translate(0 -2.09)"/><path class="cls-1" d="M561.4,9V3.6h1.08l1.28,3.84L564,8.24c0.06-.2.16-0.49,0.29-0.87l1.3-3.77h1V9h-0.69V4.48L564.31,9h-0.65l-1.57-4.61V9H561.4Z" transform="translate(0 -2.09)"/><polygon class="cls-1" points="307.49 0 290.85 12.69 282.81 41.34 292.13 54.53 319.1 54.53 313.61 74.34 291.34 74.34 293.96 64.92 276.26 64.92 272.51 78.73 282.08 91.8 313.37 91.8 330.08 78.91 338.03 49.99 328.63 36.92 301.7 36.92 307.14 17.36 329.29 17.36 326.65 26.88 344.4 26.88 348.42 12.69 339.18 0 307.49 0"/><polygon class="cls-1" points="375.09 0 358.38 12.69 340.04 78.82 349.68 91.8 380.96 91.8 397.7 78.82 402.85 60.15 385.16 60.15 381.23 74.34 359 74.34 374.87 17.26 397.04 17.26 393.05 31.65 410.71 31.65 416.04 12.69 406.91 0 375.09 0"/><path class="cls-1" d="M510.19,19.35h22.16L524.1,49H502ZM497.38,2.09l-25.51,91.8h17.68l7.61-27.5h14.39l3.3,27.5h17.29L528.35,62.6,540.8,52.52l10.48-37.74L542,2.09H497.38Z" transform="translate(0 -2.09)"/><polygon class="cls-1" points="198.96 0 184.62 51.83 176.1 0 158.58 0 133.08 91.8 150.78 91.8 165.36 39.77 174.01 91.8 191.26 91.8 216.68 0 198.96 0"/><path class="cls-1" d="M239.58,19.35h22.28L253.65,49H231.38Zm0.2-17.26-16.5,12.6-22,79.2h17.68l7.61-27.48h22.28l-7.61,27.48h17.62l22-79.11L271.58,2.09h-31.8Z" transform="translate(0 -2.09)"/><path class="cls-1" d="M442.38,19.35h22.28L456.45,49H434.18Zm0.2-17.26L426,14.77,404.07,93.89h17.67l7.61-27.48h22.28L444,93.89h17.71l21.93-79.2-9.28-12.6h-31.8Z" transform="translate(0 -2.09)"/><polygon class="cls-2" points="113.67 0.01 88.16 91.81 123.45 91.81 148.87 0.01 113.67 0.01"/><polygon class="cls-3" points="63.06 0.04 37.53 91.92 54.56 91.92 80 0.04 63.06 0.04"/><polygon class="cls-3" points="86.96 0.04 61.43 91.92 78.46 91.92 103.9 0.04 86.96 0.04"/><polygon class="cls-4" points="25.53 0.04 0 91.92 10.58 91.92 36.02 0.04 25.53 0.04"/><polygon class="cls-4" points="42.91 0.04 17.38 91.92 27.96 91.92 53.4 0.04 42.91 0.04"/></svg>